<?xml version="1.0" encoding="utf-8"?>
<!-- Generator: Adobe Illustrator 27.5.0, SVG Export Plug-In . SVG Version: 6.00 Build 0)  -->
<svg version="1.1" xmlns="http://www.w3.org/2000/svg" xmlns:xlink="http://www.w3.org/1999/xlink" x="0px" y="0px"
	 viewBox="0 0 500 500" style="enable-background:new 0 0 500 500;" xml:space="preserve">
<g id="BACKGROUND">
</g>
<g id="OBJECTS">
	<g>
		<g>
			<linearGradient id="SVGID_1_" gradientUnits="userSpaceOnUse" x1="336.9801" y1="-44.3469" x2="414.2847" y2="348.9984">
				<stop  offset="0" style="stop-color:#5F00A4"/>
				<stop  offset="1" style="stop-color:#024594"/>
			</linearGradient>
			<path style="fill:url(#SVGID_1_);" d="M398.516,242.962c-1.723-0.525-3.496-1.084-5.3-1.668c0.169,0.055,0.338,0.109,0.506,0.163
				l-4.16,7.542c1.407,0.057,2.782,0.111,4.106,0.161l4.845-6.199C398.513,242.962,398.515,242.962,398.516,242.962z"/>
			
				<linearGradient id="SVGID_00000121268043912840524920000013052631242605962888_" gradientUnits="userSpaceOnUse" x1="208.8803" y1="-19.1731" x2="286.1853" y2="374.1739">
				<stop  offset="0" style="stop-color:#5F00A4"/>
				<stop  offset="1" style="stop-color:#024594"/>
			</linearGradient>
			<path style="fill:url(#SVGID_00000121268043912840524920000013052631242605962888_);" d="M250.819,104.431
				c-48.112,0-89.223,29.898-105.819,72.119c1.878,0.645,3.797,1.191,5.715,1.709l-0.966-5.275l-0.007-0.038l-0.006-0.038
				c-0.506-3.261,1.517-6.362,4.706-7.212l7.369-1.965c0.588-0.961,1.195-1.909,1.813-2.85l48.583-7.692
				c2.837-2.169,5.859-4.106,9.039-5.786l-54.203,8.582c2.035-2.739,4.199-5.376,6.486-7.899l129.165-20.451
				c2.958,1.699,5.822,3.541,8.588,5.512l-49.015,7.76c3.579,0.615,7.055,1.527,10.406,2.707l43.385-6.869
				c2.301,1.847,4.526,3.785,6.661,5.818l-38.987,6.173c1.85,1.081,3.641,2.251,5.367,3.505l37.373-5.917
				c1.842,1.941,3.608,3.955,5.298,6.033l-35.779,5.665c1.257,1.212,2.468,2.471,3.623,3.781l35.162-5.567
				c0.425,0.576,0.819,1.175,1.232,1.76c0.945-0.313,1.873-0.597,2.74-0.872c2.23-0.709,4.486-1.326,6.746-1.932
				C325.123,124.598,290.331,104.431,250.819,104.431z M250.819,113.816c8.134,0,16.045,0.946,23.643,2.708l-77.488,12.269
				C212.694,119.296,231.113,113.816,250.819,113.816z M178.529,142.94c3.135-3.016,6.456-5.84,9.948-8.447l95.85-15.176
				c4.146,1.406,8.172,3.068,12.065,4.962L178.529,142.94z"/>
			
				<linearGradient id="SVGID_00000095313542798339408260000016554206041715941784_" gradientUnits="userSpaceOnUse" x1="177.2646" y1="-12.9593" x2="254.5696" y2="380.388">
				<stop  offset="0" style="stop-color:#5F00A4"/>
				<stop  offset="1" style="stop-color:#024594"/>
			</linearGradient>
			<path style="fill:url(#SVGID_00000095313542798339408260000016554206041715941784_);" d="M350.648,248.367
				c-7.319,24.18-23.195,44.625-44.09,57.868l-7.829-2.488l-25.547-32.581l-5.526,8.383l-14.631-26.683l-0.29,0.52l-0.29-0.52
				l-14.631,26.683l-5.527-8.383l-25.547,32.581l-10.404,3.307c-19.045-11.691-34.047-29.325-42.423-50.322
				c-6.686-1.254-9.112-3.184-10.402-5.089c-2.087-3.082-0.806-6.284-0.041-8.197l0.296-0.739l0.636-0.477
				c0,0,0.393-0.295,1.123-0.817l1.014-0.725l1.22,0.256l0.707,0.148c0.059-0.039,0.118-0.079,0.179-0.119l0.418,0.088l1.505,0.316
				L163.052,244c7.447-1.04,8.419-7.868,8.419-7.868l-10.269-1.322l-2.067-0.266l-11.539-1.486
				c-0.701-4.882-1.071-9.871-1.071-14.947c0-4.661,0.327-9.244,0.921-13.743c-3.035-0.934-6.077-1.847-9.071-2.906
				c-0.799,5.436-1.236,10.991-1.236,16.649c0,4.64,0.285,9.213,0.825,13.707l-37.081-4.775l-5.504,2.744l43.675,9.173
				c9.793,52.824,56.104,92.83,111.764,92.83c50.675,0,93.599-33.161,108.273-78.965
				C355.821,252.344,352.858,250.745,350.648,248.367z M196.339,307.055c2.422,1.487,4.911,2.876,7.458,4.166
				C201.249,309.932,198.761,308.542,196.339,307.055z M208.888,305.893l22.682-28.506l-7.05,13.793l7.05-3.678l-15.326,24.215
				l5.824-16.245L208.888,305.893z M252.106,276.468l-6.437,8.123l6.437,12.414l-23.908,8.889l23.908-45.67V276.468z
				 M289.228,311.717l-15.326-24.215l7.05,3.678l-7.05-13.793l22.682,28.506l-13.18-10.421L289.228,311.717z"/>
			
				<linearGradient id="SVGID_00000060020950222258401570000003047671850078847410_" gradientUnits="userSpaceOnUse" x1="308.7967" y1="-38.8091" x2="386.1016" y2="354.5381">
				<stop  offset="0" style="stop-color:#5F00A4"/>
				<stop  offset="1" style="stop-color:#024594"/>
			</linearGradient>
			<path style="fill:url(#SVGID_00000060020950222258401570000003047671850078847410_);" d="M355.102,218.693
				c-0.013,2.242-0.093,4.467-0.245,6.674c0.797-0.398,1.638-0.73,2.521-0.98c1.229-0.348,2.479-0.663,3.717-0.936
				c1.094-0.242,2.195-0.444,3.299-0.628c0.064-1.563,0.105-3.133,0.105-4.712c0-1.237-0.032-2.466-0.076-3.693
				C361.438,216.156,358.327,217.768,355.102,218.693z"/>
			
				<linearGradient id="SVGID_00000055672024711763141320000012592473628780731057_" gradientUnits="userSpaceOnUse" x1="199.4843" y1="-17.3267" x2="276.7893" y2="376.0204">
				<stop  offset="0" style="stop-color:#5F00A4"/>
				<stop  offset="1" style="stop-color:#024594"/>
			</linearGradient>
			<path style="fill:url(#SVGID_00000055672024711763141320000012592473628780731057_);" d="M103.923,181.177l-3.126,3.235
				l5.551,1.888l4.684-3.51l-3.712,3.84l5.397,1.836l5.422-4.064l-4.298,4.446l5.244,1.784l6.161-4.617l-4.883,5.052l5.091,1.731
				l6.9-5.171l-5.469,5.658l4.938,1.679l7.639-5.725l-6.054,6.264l4.785,1.627l1.036-0.776l7.342-5.502l-6.64,6.869l4.631,1.575
				l4.305-3.226l0.013-0.01l4.798-3.596l-4.19,4.335l-0.982,1.016l-2.053,2.124l1.565,0.532l2.913,0.991l8.275-6.202l1.579-1.184
				l-1.066,1.102l-6.745,6.979l1.998,0.679l2.327,0.791l0.497-0.372l10.097-7.567l-8.007,8.285l-0.389,0.402l4.172,1.419
				l0.477-0.357l10.855-8.136l-8.609,8.907l-0.372,0.385l4.018,1.367l0.457-0.342l11.614-8.705l-9.237,9.557l-0.33,0.341
				l3.865,1.315l0.357-0.268l12.452-9.332l-9.886,10.229l-0.266,0.275l3.712,1.262l0.334-0.25l13.215-9.904l-10.457,10.819
				l-0.281,0.291l3.559,1.21l0.415-0.311l13.873-10.397l-10.95,11.329l-0.374,0.386l1.595,0.543l1.81,0.616l15.026-11.261
				l-11.909,12.322l3.252,1.106l15.765-11.815l-12.495,12.927l3.099,1.054l16.504-12.369l-13.08,13.533l2.946,1.002l17.243-12.922
				l-13.666,14.139l2.792,0.95l15.003-11.244c0.515-5.839,4.337-11.154,10.123-13.284c1.266-0.466,2.567-0.902,3.866-1.294
				c6.532-1.973,13.338-2.952,20.152-2.952c0.038,0,0.075,0,0.112,0v0.003c0.39-0.195,0.792-0.368,1.22-0.488
				c0.624-0.176,1.258-0.26,1.894-0.26c4.446,0,8.967,4.131,10.651,10.114c1.924,6.839-0.571,13.546-5.565,14.951
				c-0.038,0.011-0.077,0.014-0.116,0.024c-6.175,4.172-12.948,7.168-20.148,8.89c-1.462,0.35-2.959,0.65-4.451,0.891
				c-0.818,0.133-1.635,0.197-2.441,0.198c-2.27,0-4.461-0.52-6.451-1.453l-7.782,4.102l-3.179-1.092h0l-40.477-13.705
				c-4.513,2.245-13.911,6.9-23.551,11.564c-1.434,0.694-2.831,1.403-4.186,2.115l6.187,0.797c0.794,0.103,1.513,0.518,1.998,1.155
				c0.485,0.637,0.694,1.441,0.582,2.233c-0.446,3.132-3.311,9.34-10.966,10.41c-0.137,0.019-0.276,0.028-0.414,0.028
				c-0.206,0-0.412-0.022-0.615-0.064l-12.6-2.647l-2.659-0.559c-0.696,0.498-1.071,0.779-1.071,0.779
				c-1.17,2.926-2.723,6.841,6.604,9.062c4.434,1.056,11.317,1.731,21.89,1.731c2.135,0,4.349-0.023,6.606-0.061
				c-0.225-0.328-0.444-0.66-0.653-0.995c-0.917-1.469-1.609-3.056-2.125-4.673c-0.51-1.618-0.842-3.289-0.883-4.959
				c0.31,1.638,0.899,3.196,1.635,4.654c0.743,1.455,1.63,2.824,2.69,4.029c0.59,0.668,1.211,1.304,1.866,1.895
				c2.439-0.055,4.929-0.128,7.481-0.227c-0.402-0.547-0.786-1.105-1.142-1.673c-0.917-1.469-1.609-3.056-2.125-4.673
				c-0.51-1.618-0.842-3.289-0.883-4.959c0.31,1.638,0.899,3.196,1.635,4.654c0.743,1.455,1.63,2.824,2.69,4.029
				c0.798,0.903,1.643,1.755,2.566,2.503c2.342-0.104,4.709-0.219,7.127-0.361c-0.537-0.692-1.03-1.414-1.489-2.147
				c-0.917-1.469-1.609-3.056-2.125-4.673c-0.51-1.618-0.842-3.289-0.883-4.959c0.31,1.638,0.899,3.196,1.635,4.654
				c0.743,1.455,1.63,2.824,2.69,4.029c0.951,1.076,1.975,2.073,3.114,2.914c2.248-0.145,4.521-0.306,6.818-0.484
				c-0.628-0.78-1.203-1.598-1.727-2.434c-0.917-1.469-1.609-3.056-2.125-4.673c-0.51-1.618-0.842-3.289-0.883-4.959
				c0.31,1.638,0.899,3.196,1.635,4.654c0.743,1.455,1.63,2.824,2.69,4.029c1.035,1.172,2.152,2.257,3.417,3.14
				c2.187-0.183,4.392-0.381,6.611-0.595c-0.665-0.814-1.273-1.671-1.823-2.55c-0.917-1.469-1.609-3.056-2.125-4.673
				c-0.51-1.618-0.842-3.289-0.883-4.959c0.31,1.638,0.899,3.196,1.635,4.654c0.743,1.455,1.63,2.824,2.69,4.029
				c1.058,1.197,2.198,2.307,3.498,3.201c0.25-0.025,0.498-0.049,0.748-0.075c0.528-0.056,1.055-0.112,1.585-0.171
				c0.248-0.027,0.496-0.053,0.744-0.08c22.454-2.435,45.937-6.493,66.359-12.596c19.821-5.923,42.763-16.295,62.111-26.293
				c3.14-1.623,6.177-3.233,9.099-4.815c13.19-7.144,23.874-13.67,29.382-17.676c1.102-0.801,2.014-1.616,2.795-2.436
				c9.316-9.787-2.795-20.445-2.795-20.445c-0.543-0.63-1.109-1.217-1.687-1.784c-1.674,0.155-3.289,0.33-4.843,0.519
				c-0.461-1.706-0.917-3.415-1.359-5.126c-5.213-2.856-11.298-4.08-17.956-4.08c-5.933,0-12.324,0.978-18.961,2.631
				c-3.069,0.764-6.189,1.673-9.344,2.7c-0.003,0.001-0.006,0.002-0.009,0.003c-2.794,0.91-5.611,1.906-8.441,2.979
				c-2.78,1.054-5.949,2.285-9.384,3.638c-27.516,10.839-72.212,29.604-72.212,29.604l-57.234-9.109l-13.715-2.183l-21.646-3.445
				l-0.204-0.032l-4.137-0.658l-0.024-0.004l-0.63-0.1l-8.779-1.397l-37.396-5.952l-27.006,1.01
				c-1.121,0.042-2.008,0.963-2.008,2.085c0,0.505,0.187,0.962,0.485,1.322c0.383,0.463,0.954,0.764,1.601,0.764h12.428h1.116
				l7.837,2.665L103.923,181.177z M229.935,251.953c-0.644-0.795-1.234-1.631-1.77-2.486c-0.917-1.469-1.609-3.056-2.125-4.673
				c-0.51-1.618-0.842-3.289-0.883-4.959c0.31,1.638,0.899,3.196,1.635,4.654c0.743,1.455,1.63,2.824,2.69,4.029
				c1.014,1.148,2.107,2.21,3.34,3.083C231.859,251.721,230.896,251.839,229.935,251.953z M239.26,250.761
				c-0.569-0.723-1.091-1.479-1.573-2.249c-0.917-1.469-1.609-3.056-2.125-4.673c-0.51-1.618-0.842-3.289-0.883-4.959
				c0.31,1.638,0.899,3.196,1.635,4.654c0.743,1.455,1.63,2.824,2.69,4.029c0.913,1.032,1.893,1.991,2.977,2.811
				C241.074,250.505,240.167,250.636,239.26,250.761z M248.471,249.395c-0.447-0.597-0.87-1.211-1.262-1.837
				c-0.917-1.469-1.609-3.056-2.125-4.673c-0.51-1.618-0.842-3.289-0.883-4.959c0.31,1.638,0.899,3.196,1.636,4.654
				c0.743,1.455,1.63,2.824,2.69,4.029c0.757,0.857,1.559,1.665,2.428,2.385C250.128,249.13,249.3,249.264,248.471,249.395z
				 M257.564,247.853c-0.288-0.411-0.568-0.827-0.832-1.248c-0.917-1.469-1.609-3.056-2.125-4.673
				c-0.51-1.618-0.842-3.289-0.883-4.959c0.31,1.638,0.899,3.196,1.635,4.654c0.743,1.455,1.63,2.824,2.69,4.029
				c0.555,0.628,1.135,1.23,1.746,1.791C259.053,247.585,258.308,247.718,257.564,247.853z M266.561,246.117
				c-0.102-0.156-0.208-0.31-0.306-0.467c-0.917-1.469-1.609-3.056-2.125-4.673c-0.51-1.618-0.842-3.289-0.883-4.959
				c0.31,1.638,0.899,3.196,1.635,4.654c0.743,1.455,1.63,2.824,2.69,4.029c0.307,0.347,0.624,0.684,0.946,1.014
				C267.868,245.852,267.213,245.983,266.561,246.117z M275.472,244.167c-0.763-1.319-1.365-2.718-1.821-4.144
				c-0.51-1.618-0.842-3.289-0.883-4.959c0.31,1.638,0.899,3.196,1.635,4.654c0.743,1.455,1.63,2.824,2.69,4.029
				c0.01,0.011,0.02,0.021,0.03,0.032C276.575,243.91,276.023,244.039,275.472,244.167z M388.839,189.453
				c0.931,0.92,1.936,1.752,3.01,2.466c-0.396,0.27-0.811,0.549-1.239,0.834c-0.88-0.859-1.677-1.794-2.39-2.774
				c-0.993-1.376-1.833-2.858-2.396-4.431C386.633,187.006,387.681,188.3,388.839,189.453z M350.869,215.29
				c-1.012-0.615-1.969-1.314-2.867-2.058c-1.332-1.106-2.487-2.396-3.486-3.769c-0.993-1.376-1.833-2.858-2.396-4.431
				c0.809,1.457,1.857,2.752,3.014,3.905c1.163,1.148,2.434,2.169,3.82,2.98c1.384,0.806,2.818,1.503,4.336,1.944
				c0.08,0.027,0.162,0.045,0.242,0.071C352.649,214.384,351.765,214.837,350.869,215.29z M384.5,196.653
				c-0.511,0.315-1.035,0.636-1.57,0.961c-1.317-1.1-2.462-2.378-3.451-3.738c-0.993-1.376-1.833-2.858-2.396-4.431
				c0.809,1.458,1.857,2.752,3.015,3.905c1.162,1.148,2.434,2.169,3.819,2.98C384.11,196.442,384.306,196.546,384.5,196.653z
				 M379.206,160.843c0.57,2.276,1.168,4.545,1.778,6.811c-2.194,0.346-4.224,0.71-6.054,1.071
				c-0.721-2.463-1.576-4.883-2.587-7.231C374.804,161.216,377.109,161.005,379.206,160.843z M375.177,200.226
				c0.581,0.339,1.174,0.651,1.775,0.94c-0.608,0.353-1.224,0.71-1.851,1.07c-0.297-0.228-0.591-0.458-0.877-0.695
				c-1.332-1.106-2.487-2.396-3.486-3.769c-0.993-1.376-1.833-2.858-2.396-4.431c0.809,1.457,1.857,2.752,3.015,3.905
				C372.52,198.395,373.791,199.416,375.177,200.226z M366.141,162.298c1.169,2.488,2.133,5.069,2.929,7.708
				c-3.626,0.877-5.64,1.533-5.64,1.533l-3.503-8.203C362.035,162.94,364.115,162.598,366.141,162.298z M362.616,201.143
				c1.163,1.148,2.434,2.169,3.819,2.98c0.919,0.535,1.863,1.014,2.836,1.41c-0.699,0.389-1.409,0.78-2.124,1.174
				c-0.573-0.404-1.13-0.826-1.664-1.268c-1.332-1.106-2.487-2.396-3.486-3.769c-0.993-1.376-1.833-2.858-2.396-4.431
				C360.41,198.696,361.459,199.99,362.616,201.143z M353.876,205.04c1.162,1.148,2.434,2.169,3.819,2.98
				c1.211,0.706,2.465,1.317,3.775,1.756c-0.797,0.426-1.59,0.85-2.403,1.279c-0.812-0.53-1.589-1.109-2.325-1.719
				c-1.332-1.106-2.487-2.396-3.486-3.769c-0.993-1.376-1.833-2.858-2.396-4.431C351.67,202.593,352.718,203.887,353.876,205.04z
				 M342.343,168.073l2.537-0.765l4.609,15.288l-0.528,0.159l-10.103,3.045l-4.608-15.287L342.343,168.073z M336.394,212.834
				c1.162,1.148,2.434,2.169,3.82,2.98c1.384,0.806,2.818,1.503,4.336,1.944c0.284,0.096,0.573,0.174,0.861,0.252
				c-0.961,0.473-1.926,0.944-2.898,1.414c-1.158-0.666-2.24-1.455-3.252-2.294c-1.332-1.106-2.487-2.396-3.486-3.769
				c-0.993-1.376-1.833-2.858-2.396-4.431C334.188,210.386,335.236,211.681,336.394,212.834z M331.473,219.71
				c1.384,0.806,2.818,1.504,4.336,1.944c0.417,0.14,0.841,0.256,1.267,0.36c-1.021,0.479-2.044,0.954-3.072,1.428
				c-1.245-0.691-2.405-1.523-3.484-2.417c-1.332-1.106-2.487-2.396-3.486-3.769c-0.993-1.376-1.833-2.858-2.396-4.431
				c0.809,1.458,1.857,2.752,3.015,3.905C328.816,217.879,330.087,218.9,331.473,219.71z M325.684,173.489l2.93,7.649l-4.846,1.856
				l-2.93-7.649L325.684,173.489z M322.732,223.607c1.384,0.806,2.818,1.503,4.336,1.944c0.467,0.157,0.942,0.281,1.419,0.394
				c-1.065,0.474-2.132,0.942-3.201,1.407c-1.254-0.694-2.422-1.53-3.508-2.429c-1.332-1.106-2.487-2.396-3.486-3.769
				c-0.993-1.376-1.833-2.858-2.396-4.431c0.809,1.457,1.857,2.752,3.015,3.905C320.075,221.775,321.347,222.796,322.732,223.607z
				 M315.546,177.372l2.93,7.649l-4.845,1.856l-2.93-7.649L315.546,177.372z M313.991,227.504c1.384,0.806,2.818,1.503,4.336,1.944
				c0.405,0.136,0.817,0.25,1.23,0.352c-1.079,0.451-2.158,0.892-3.235,1.33c-1.17-0.669-2.262-1.464-3.284-2.311
				c-1.332-1.106-2.487-2.396-3.486-3.769c-0.993-1.376-1.833-2.858-2.396-4.431c0.809,1.458,1.857,2.752,3.015,3.905
				C311.334,225.672,312.606,226.693,313.991,227.504z M305.408,181.256l2.93,7.649l-4.845,1.856l-2.93-7.649L305.408,181.256z
				 M301.431,228.421c1.163,1.148,2.434,2.169,3.82,2.98c1.384,0.806,2.818,1.504,4.336,1.944c0.214,0.072,0.432,0.128,0.648,0.189
				c-1.052,0.404-2.102,0.804-3.147,1.192c-0.983-0.604-1.915-1.285-2.79-2.01c-1.332-1.106-2.487-2.396-3.486-3.769
				c-0.993-1.376-1.833-2.858-2.396-4.431C299.225,225.974,300.274,227.268,301.431,228.421z M292.69,232.318
				c1.163,1.148,2.434,2.169,3.82,2.98c1.257,0.732,2.559,1.364,3.924,1.806c-0.984,0.337-1.959,0.659-2.932,0.978
				c-0.674-0.461-1.324-0.954-1.945-1.469c-1.332-1.106-2.487-2.396-3.486-3.769c-0.993-1.376-1.833-2.858-2.396-4.431
				C290.484,229.87,291.533,231.165,292.69,232.318z M284.334,241.967c-0.456-0.943-0.845-1.913-1.16-2.898
				c-0.51-1.618-0.842-3.289-0.883-4.959c0.31,1.638,0.899,3.196,1.635,4.654c0.509,0.997,1.091,1.948,1.745,2.839
				C285.225,241.725,284.783,241.848,284.334,241.967z"/>
			
				<linearGradient id="SVGID_00000002351939585889362590000012855223797298184358_" gradientUnits="userSpaceOnUse" x1="153.2602" y1="-8.2406" x2="230.5646" y2="385.1036">
				<stop  offset="0" style="stop-color:#5F00A4"/>
				<stop  offset="1" style="stop-color:#024594"/>
			</linearGradient>
			<path style="fill:url(#SVGID_00000002351939585889362590000012855223797298184358_);" d="M203.244,161.48l-32.252,5.107
				l2.825,3.907l25.398-4.021C200.478,164.742,201.819,163.074,203.244,161.48z"/>
			
				<linearGradient id="SVGID_00000045619746999782551450000008632110426604350109_" gradientUnits="userSpaceOnUse" x1="150.3664" y1="-7.6734" x2="227.6715" y2="385.6745">
				<stop  offset="0" style="stop-color:#5F00A4"/>
				<stop  offset="1" style="stop-color:#024594"/>
			</linearGradient>
			<path style="fill:url(#SVGID_00000045619746999782551450000008632110426604350109_);" d="M194.409,174.106l-16.133,2.554
				l2.826,3.907l11.034-1.747C192.832,177.214,193.59,175.641,194.409,174.106z"/>
			
				<linearGradient id="SVGID_00000078005321834518131900000004765798258480383398_" gradientUnits="userSpaceOnUse" x1="150.3265" y1="-7.6621" x2="227.6302" y2="385.6789">
				<stop  offset="0" style="stop-color:#5F00A4"/>
				<stop  offset="1" style="stop-color:#024594"/>
			</linearGradient>
			<path style="fill:url(#SVGID_00000078005321834518131900000004765798258480383398_);" d="M189.494,186.111l-2.105,0.333
				l1.917,0.305C189.367,186.535,189.431,186.323,189.494,186.111z"/>
			
				<linearGradient id="SVGID_00000044156645182992714820000001358794985349814423_" gradientUnits="userSpaceOnUse" x1="276.7342" y1="-32.5075" x2="354.039" y2="360.8386">
				<stop  offset="0" style="stop-color:#5F00A4"/>
				<stop  offset="1" style="stop-color:#024594"/>
			</linearGradient>
			<path style="fill:url(#SVGID_00000044156645182992714820000001358794985349814423_);" d="M308.798,171.576
				c6.772-2.726,13.105-5.239,18.357-7.261l-22.77,3.605c0.885,1.286,1.726,2.605,2.518,3.956L308.798,171.576z"/>
			
				<linearGradient id="SVGID_00000153688462176419245060000012923281610571597215_" gradientUnits="userSpaceOnUse" x1="244.066" y1="132.3559" x2="250.887" y2="205.1139">
				<stop  offset="0" style="stop-color:#FFFF1A"/>
				<stop  offset="1" style="stop-color:#EF3D00"/>
			</linearGradient>
			<path style="fill:url(#SVGID_00000153688462176419245060000012923281610571597215_);" d="M249.289,193.865
				c0,0,24.921-10.463,49.001-20.276c-0.057-0.108-0.119-0.214-0.177-0.322c-0.73-1.363-1.518-2.691-2.359-3.981
				c-1.407-2.157-2.962-4.208-4.655-6.135c-1.157-1.317-2.377-2.578-3.656-3.775c-2.253-2.109-4.689-4.021-7.28-5.72
				c-1.917-1.257-3.918-2.398-5.995-3.405c-4.488-2.176-9.328-3.738-14.408-4.591c-2.908-0.489-5.894-0.749-8.942-0.749
				c-8.962,0-17.404,2.208-24.828,6.096c-4.499,2.356-8.622,5.33-12.256,8.813c-1.664,1.595-3.223,3.297-4.671,5.094
				c-1.936,2.402-3.669,4.974-5.173,7.691c-0.848,1.532-1.632,3.104-2.33,4.723c-1.009,2.341-1.846,4.772-2.517,7.271
				c-0.109,0.406-0.224,0.809-0.324,1.218l10.039,1.598L249.289,193.865z"/>
			
				<linearGradient id="SVGID_00000175314917014687213880000010913791186923531139_" gradientUnits="userSpaceOnUse" x1="209.0753" y1="-19.2116" x2="286.3803" y2="374.1354">
				<stop  offset="0" style="stop-color:#5F00A4"/>
				<stop  offset="1" style="stop-color:#024594"/>
			</linearGradient>
			<path style="fill:url(#SVGID_00000175314917014687213880000010913791186923531139_);" d="M250.804,202.182
				c-1.245,0.377-2.493,0.794-3.708,1.241c-4.595,1.691-7.844,5.958-8.277,10.871l-0.111,1.261l-0.656,0.491
				c0.049,0.967,0.192,1.94,0.464,2.905c0.822,2.919,2.549,5.353,4.795,7.065c-0.992-1.516-1.828-3.109-2.453-4.759
				c1.678,2.354,3.743,4.339,6.025,5.897c0.874,0.338,1.768,0.574,2.677,0.706c-1.936-2.259-3.479-4.777-4.489-7.445
				c2.268,3.181,5.243,5.68,8.503,7.37c0.243-0.041,0.487-0.088,0.731-0.132c-2.2-2.411-3.917-5.164-5.021-8.08
				c2.262,3.172,5.228,5.664,8.478,7.353c0.233-0.057,0.464-0.123,0.696-0.183c-2.171-2.395-3.868-5.123-4.962-8.013
				c2.161,3.032,4.967,5.444,8.049,7.128c0.29-0.092,0.582-0.176,0.87-0.272c-2.04-2.322-3.658-4.931-4.706-7.699
				c1.998,2.804,4.546,5.084,7.354,6.747c0.363-0.141,0.72-0.299,1.08-0.448c-1.81-2.181-3.257-4.595-4.221-7.142
				c1.782,2.5,4.011,4.563,6.46,6.165c0.451-0.208,0.903-0.412,1.349-0.632c-1.517-1.977-2.745-4.126-3.596-6.376
				c1.522,2.135,3.374,3.947,5.405,5.435c0.69-0.37,1.372-0.757,2.05-1.155c-3.364-1.345-6.38-4.858-7.688-9.502
				c-1.227-4.361-0.637-8.647,1.232-11.559C261.558,199.666,256.077,200.589,250.804,202.182z"/>
			
				<linearGradient id="SVGID_00000011005528767579942580000000074602016420096154_" gradientUnits="userSpaceOnUse" x1="299.8885" y1="-37.0588" x2="377.1935" y2="356.2881">
				<stop  offset="0" style="stop-color:#5F00A4"/>
				<stop  offset="1" style="stop-color:#024594"/>
			</linearGradient>
			<polygon style="fill:url(#SVGID_00000011005528767579942580000000074602016420096154_);" points="345.954,180.698 
				342.983,170.844 337.787,172.411 340.757,182.265 			"/>
			
				<linearGradient id="SVGID_00000005980146422887705050000005213776148753333425_" gradientUnits="userSpaceOnUse" x1="227.522" y1="-22.8377" x2="304.8268" y2="370.5087">
				<stop  offset="0" style="stop-color:#5F00A4"/>
				<stop  offset="1" style="stop-color:#024594"/>
			</linearGradient>
			<path style="fill:url(#SVGID_00000005980146422887705050000005213776148753333425_);" d="M269.406,200.109
				c-1.824,2.294-2.431,6.218-1.296,10.25c1.334,4.735,4.634,8.103,7.901,8.413c1.348-1.192,2.083-2.862,2.418-4.548
				c0.425-2.204,0.205-4.495-0.376-6.663c-0.631-2.155-1.641-4.223-3.152-5.884c-1.006-1.092-2.263-2.016-3.73-2.449
				L269.406,200.109z"/>
			
				<linearGradient id="SVGID_00000180326046006417565700000018251880693440386189_" gradientUnits="userSpaceOnUse" x1="232.464" y1="-23.808" x2="309.769" y2="369.539">
				<stop  offset="0" style="stop-color:#5F00A4"/>
				<stop  offset="1" style="stop-color:#024594"/>
			</linearGradient>
			<path style="fill:url(#SVGID_00000180326046006417565700000018251880693440386189_);" d="M278.059,217.962
				c3.163-1.238,4.639-6.268,3.221-11.31c-1.291-4.587-4.695-8.045-7.92-8.045c-0.251,0-0.498,0.03-0.742,0.074
				c1.256,0.323,2.423,0.972,3.406,1.811c1.992,1.691,3.335,4.029,4.05,6.499c0.683,2.48,0.754,5.176-0.063,7.659
				C279.612,215.874,278.958,217.033,278.059,217.962z"/>
			
				<linearGradient id="SVGID_00000038382782958013749780000005785248156863000464_" gradientUnits="userSpaceOnUse" x1="188.9034" y1="-15.2457" x2="266.208" y2="378.0996">
				<stop  offset="0" style="stop-color:#5F00A4"/>
				<stop  offset="1" style="stop-color:#024594"/>
			</linearGradient>
			<path style="fill:url(#SVGID_00000038382782958013749780000005785248156863000464_);" d="M231.439,228.572l3.362,1.138
				l2.019,0.693l5.205-2.743c-1.851-1.416-3.398-3.247-4.473-5.413L231.439,228.572z"/>
			
				<linearGradient id="SVGID_00000017492969073469367340000010528570217870217344_" gradientUnits="userSpaceOnUse" x1="184.1303" y1="-14.3097" x2="261.4354" y2="379.0385">
				<stop  offset="0" style="stop-color:#5F00A4"/>
				<stop  offset="1" style="stop-color:#024594"/>
			</linearGradient>
			<path style="fill:url(#SVGID_00000017492969073469367340000010528570217870217344_);" d="M236.083,217.523l-9.547,7.155
				l-1.627,1.683l2.693,0.912l9.175-6.877c-0.1-0.289-0.202-0.577-0.285-0.874C236.305,218.858,236.176,218.191,236.083,217.523z"/>
			
				<linearGradient id="SVGID_00000072960267149887018050000007152052383418186666_" gradientUnits="userSpaceOnUse" x1="130.8135" y1="-3.8302" x2="208.1183" y2="389.5157">
				<stop  offset="0" style="stop-color:#5F00A4"/>
				<stop  offset="1" style="stop-color:#024594"/>
			</linearGradient>
			<path style="fill:url(#SVGID_00000072960267149887018050000007152052383418186666_);" d="M175.134,177.158l-4.459-6.166
				l-2.251-3.112c-0.21-0.289-0.451-0.547-0.715-0.772c-0.813-0.695-1.849-1.078-2.916-1.078c-0.384,0-0.773,0.049-1.156,0.152
				l-3.86,1.029l-4.604,1.228c-1.78,0.475-2.916,2.215-2.633,4.036l1.313,7.167l0.158,0.862l0.119,0.648l2.755,0.438
				c3.736,0.468,6.489,0.855,9.461,1.315c3.741,0.579,7.831,1.275,14.678,2.396l-3.063-4.235L175.134,177.158z"/>
			
				<linearGradient id="SVGID_00000023996935738801651480000009601204300968245654_" gradientUnits="userSpaceOnUse" x1="129.8307" y1="-3.6374" x2="207.1356" y2="389.7092">
				<stop  offset="0" style="stop-color:#5F00A4"/>
				<stop  offset="1" style="stop-color:#024594"/>
			</linearGradient>
			<polygon style="fill:url(#SVGID_00000023996935738801651480000009601204300968245654_);" points="187.441,216.877 
				184.672,215.935 183.279,215.461 183.279,215.461 181.862,214.979 178.15,213.717 176.91,213.295 176.91,213.295 
				175.493,212.813 171.628,211.499 170.541,211.129 170.541,211.129 169.124,210.647 165.106,209.28 162.814,208.501 
				162.755,208.481 158.583,207.062 158.39,206.997 161.433,229.786 186.041,217.841 			"/>
			
				<linearGradient id="SVGID_00000049912702717301810640000004530783068682116796_" gradientUnits="userSpaceOnUse" x1="273.4341" y1="-31.861" x2="350.7391" y2="361.4864">
				<stop  offset="0" style="stop-color:#5F00A4"/>
				<stop  offset="1" style="stop-color:#024594"/>
			</linearGradient>
			<path style="fill:url(#SVGID_00000049912702717301810640000004530783068682116796_);" d="M352.251,226.351
				c-5.607-2.21-9.171-3.671-9.171-3.671s-17.97,10.992-41.011,18.897c-0.382,0.131-0.76,0.263-1.145,0.392l-1.287,2.333
				c0.291,0.017,0.607,0.035,0.92,0.054c1.455,0.085,3.129,0.183,5.018,0.292l3.356-4.294l-2.399,4.349
				c-0.31-0.018-0.625-0.036-0.925-0.054c1.657,0.096,3.483,0.201,5.428,0.313c0.425,0.024,0.848,0.049,1.285,0.074l1.063-1.36
				l2.831-3.622l-2.104,3.814l-0.68,1.232c0.461,0.026,0.944,0.054,1.417,0.081c1.365,0.078,2.761,0.157,4.221,0.239l4.428-5.666
				l-3.165,5.738c1.772,0.1,3.607,0.203,5.488,0.307l4.959-6.345l-3.544,6.424c1.284,0.071,2.599,0.144,3.924,0.217
				c0.472,0.026,0.941,0.052,1.416,0.078l1.047-1.34l4.438-5.68l-3.471,6.293l-0.448,0.813c0.232,0.013,0.472,0.026,0.705,0.038
				c1.014,0.055,2.042,0.111,3.072,0.167c0.135,0.007,0.268,0.015,0.403,0.022c0.201,0.011,0.396,0.022,0.597,0.032
				c0.14,0.008,0.276,0.015,0.416,0.023l0.987-1.263l0.076-0.098l0.002-0.002l4.943-6.326l-3.846,6.972l-0.365,0.662l-0.081,0.147
				c0.034,0.002,0.069,0.004,0.103,0.006c0.198,0.011,0.399,0.021,0.598,0.032c0.98,0.053,1.966,0.105,2.954,0.158
				c0.466,0.025,0.924,0.05,1.393,0.075l1.019-1.304l0.047-0.06l0.461-0.59l0.134-0.171c-0.555-1.131-0.974-2.346-1.231-3.627
				C345.38,235.428,347.78,229.702,352.251,226.351z"/>
			
				<linearGradient id="SVGID_00000082338848816733047930000010503508547258593935_" gradientUnits="userSpaceOnUse" x1="284.4152" y1="-33.92" x2="361.6942" y2="359.295">
				<stop  offset="0" style="stop-color:#5F00A4"/>
				<stop  offset="1" style="stop-color:#024594"/>
			</linearGradient>
			<path style="fill:url(#SVGID_00000082338848816733047930000010503508547258593935_);" d="M339.738,246.562
				c-0.136-0.007-0.267-0.015-0.403-0.022l0,0C339.469,246.548,339.604,246.555,339.738,246.562z"/>
			
				<linearGradient id="SVGID_00000137811267177295586630000002372810208485358220_" gradientUnits="userSpaceOnUse" x1="259.0729" y1="-29.028" x2="336.3753" y2="364.3063">
				<stop  offset="0" style="stop-color:#5F00A4"/>
				<stop  offset="1" style="stop-color:#024594"/>
			</linearGradient>
			<path style="fill:url(#SVGID_00000137811267177295586630000002372810208485358220_);" d="M313.431,245.1L313.431,245.1
				c-0.327-0.019-0.657-0.038-0.978-0.056C312.777,245.062,313.099,245.081,313.431,245.1z"/>
			
				<linearGradient id="SVGID_00000040556660961461620520000008570687924211889087_" gradientUnits="userSpaceOnUse" x1="278.1648" y1="-32.8332" x2="355.4814" y2="360.5733">
				<stop  offset="0" style="stop-color:#5F00A4"/>
				<stop  offset="1" style="stop-color:#024594"/>
			</linearGradient>
			<path style="fill:url(#SVGID_00000040556660961461620520000008570687924211889087_);" d="M333.43,246.219
				c-0.287-0.016-0.568-0.031-0.854-0.047l0,0C332.858,246.188,333.144,246.203,333.43,246.219z"/>
			
				<linearGradient id="SVGID_00000010990138200945033890000017643262587254302396_" gradientUnits="userSpaceOnUse" x1="285.4878" y1="-34.2863" x2="362.808" y2="359.1385">
				<stop  offset="0" style="stop-color:#5F00A4"/>
				<stop  offset="1" style="stop-color:#024594"/>
			</linearGradient>
			<path style="fill:url(#SVGID_00000010990138200945033890000017643262587254302396_);" d="M340.335,246.594
				c0.239,0.013,0.476,0.026,0.716,0.039h0l0,0c0,0,0,0,0,0C340.814,246.62,340.572,246.607,340.335,246.594z"/>
			
				<linearGradient id="SVGID_00000106848517020345610520000012872513233006272384_" gradientUnits="userSpaceOnUse" x1="292.9896" y1="-35.7174" x2="370.2983" y2="357.649">
				<stop  offset="0" style="stop-color:#5F00A4"/>
				<stop  offset="1" style="stop-color:#024594"/>
			</linearGradient>
			<path style="fill:url(#SVGID_00000106848517020345610520000012872513233006272384_);" d="M347.964,247.001
				c0.396,0.021,0.791,0.042,1.189,0.063c-0.226-0.306-0.437-0.623-0.64-0.947c-0.011-0.017-0.023-0.033-0.034-0.05l-0.174,0.315
				L347.964,247.001z"/>
			
				<linearGradient id="SVGID_00000005237757507581959350000010095425493548171425_" gradientUnits="userSpaceOnUse" x1="291.5415" y1="-35.4559" x2="368.8564" y2="357.9415">
				<stop  offset="0" style="stop-color:#5F00A4"/>
				<stop  offset="1" style="stop-color:#024594"/>
			</linearGradient>
			<path style="fill:url(#SVGID_00000005237757507581959350000010095425493548171425_);" d="M346.555,246.927
				c-0.144-0.008-0.289-0.015-0.432-0.023C346.266,246.912,346.411,246.919,346.555,246.927c0.424,0.023,0.848,0.045,1.273,0.067
				c0.046,0.002,0.091,0.005,0.137,0.007v0c-0.046-0.002-0.091-0.005-0.137-0.007C347.403,246.972,346.979,246.949,346.555,246.927z
				"/>
			
				<linearGradient id="SVGID_00000049931051269099555760000013715964986272241539_" gradientUnits="userSpaceOnUse" x1="244.7068" y1="-26.2202" x2="322.0135" y2="367.1357">
				<stop  offset="0" style="stop-color:#5F00A4"/>
				<stop  offset="1" style="stop-color:#024594"/>
			</linearGradient>
			<path style="fill:url(#SVGID_00000049931051269099555760000013715964986272241539_);" d="M300.516,242.106
				c0.071-0.024,0.142-0.048,0.213-0.071c-0.58,0.194-1.183,0.369-1.768,0.559c-1.473,0.478-2.942,0.961-4.448,1.406
				c0,0,1.348,0.081,3.718,0.22c0.199,0.012,0.392,0.023,0.606,0.036L300.516,242.106z"/>
			
				<linearGradient id="SVGID_00000132770094046929138630000008300109028034842261_" gradientUnits="userSpaceOnUse" x1="309.9589" y1="-39.0391" x2="387.2637" y2="354.3073">
				<stop  offset="0" style="stop-color:#5F00A4"/>
				<stop  offset="1" style="stop-color:#024594"/>
			</linearGradient>
			<path style="fill:url(#SVGID_00000132770094046929138630000008300109028034842261_);" d="M378.703,242.881
				c-0.237-0.239-0.465-0.488-0.685-0.75c-1.557-1.853-2.688-4.25-3.219-6.9c-0.022-0.111-0.035-0.223-0.055-0.334
				c-0.55-3.045-0.262-6.075,0.836-8.566c0.404-0.916,0.906-1.713,1.478-2.402c-0.719-0.025-1.439-0.043-2.154-0.043
				c-3.551,0-7.105,0.311-10.606,0.909c-0.99,0.169-1.978,0.352-2.959,0.569c-1.192,0.263-2.404,0.568-3.603,0.908
				c-0.975,0.277-1.884,0.676-2.734,1.159c-0.112,0.063-0.217,0.136-0.326,0.203c-4.368,2.665-6.826,7.85-5.783,13.043
				c0.134,0.669,0.326,1.314,0.56,1.937c0.122,0.326,0.258,0.644,0.406,0.956c0.404,0.853,0.924,1.628,1.497,2.356
				c0.16,0.203,0.303,0.422,0.475,0.614c-0.143-0.301-0.263-0.61-0.394-0.915c-0.352-0.825-0.673-1.658-0.923-2.508l-0.141-0.48
				l-0.256-0.873l-0.068-0.23l0.108,0.179l0.379,0.629l0.366,0.606c0.278,0.461,0.589,0.897,0.899,1.334
				c0.533,0.753,1.093,1.482,1.708,2.16c0.279,0.309,0.57,0.605,0.866,0.897c0,0,0,0,0,0c1.138,1.124,2.389,2.123,3.74,2.976
				c0.13,0.031,0.261,0.062,0.393,0.089c-0.716-0.942-1.362-1.93-1.931-2.951c-0.301-0.54-0.577-1.09-0.834-1.646
				c-0.22-0.476-0.422-0.957-0.608-1.443c-0.22-0.574-0.425-1.152-0.597-1.735l-0.465-1.584l0.853,1.413
				c0.244,0.405,0.504,0.799,0.772,1.186c0.227,0.328,0.467,0.644,0.71,0.959c0.836,1.081,1.764,2.078,2.773,2.983
				c0.381,0.342,0.788,0.652,1.191,0.966c0.759,0.592,1.541,1.153,2.373,1.641c-0.63-0.805-1.206-1.646-1.728-2.514c0,0,0,0,0,0
				c-0.096-0.16-0.184-0.324-0.277-0.486c-0.108-0.189-0.221-0.376-0.324-0.568c-0.777-1.446-1.405-2.952-1.855-4.486l-0.276-0.939
				l-0.185-0.63l-0.004-0.015l0.007,0.012l0.278,0.46l0.568,0.941c0.679,1.125,1.464,2.169,2.316,3.147
				c0.059,0.067,0.11,0.141,0.169,0.207c0.346,0.388,0.703,0.763,1.074,1.125c0.496,0.484,1.01,0.949,1.548,1.384
				c0.855,0.692,1.763,1.314,2.713,1.872c-0.455-0.582-0.88-1.185-1.28-1.801c-0.721-1.111-1.349-2.27-1.874-3.462
				c-0.183-0.415-0.354-0.833-0.511-1.254c-0.19-0.509-0.368-1.021-0.52-1.537l-0.31-1.056l-0.155-0.528l0.195,0.322l0.658,1.091
				c0.211,0.35,0.438,0.688,0.667,1.024c0.19,0.28,0.389,0.553,0.592,0.823c0.933,1.249,1.987,2.391,3.146,3.412
				c0.465,0.41,0.945,0.801,1.443,1.17c0.074,0.055,0.145,0.115,0.221,0.169c0.537,0.388,1.093,0.749,1.664,1.087
				c0.013-0.003,0.027-0.006,0.04-0.009c-0.263-0.338-0.516-0.683-0.76-1.033c-0.242-0.347-0.475-0.7-0.699-1.057
				c-0.327-0.522-0.629-1.057-0.915-1.598c-0.733-1.391-1.331-2.836-1.763-4.307l-0.41-1.397l-0.055-0.186l0.082,0.136l0.771,1.277
				c0.692,1.146,1.487,2.218,2.362,3.216c0.305,0.348,0.621,0.686,0.946,1.014c0.986,0.994,2.061,1.892,3.212,2.683
				c0.161,0.111,0.318,0.227,0.482,0.334c0.119-0.038,0.238-0.08,0.357-0.118c-0.164-0.223-0.322-0.45-0.477-0.678
				c-0.948-1.385-1.752-2.855-2.388-4.369c-0.148-0.352-0.285-0.706-0.415-1.063c-0.161-0.444-0.313-0.889-0.444-1.338l-0.465-1.584
				l0.853,1.413c0.178,0.294,0.367,0.581,0.558,0.866c0.154,0.231,0.315,0.456,0.478,0.681c0.947,1.308,2.029,2.516,3.23,3.593
				c0.422,0.378,0.86,0.736,1.308,1.081c0.18,0.139,0.358,0.282,0.543,0.415c0.24-0.092,0.48-0.18,0.719-0.275
				c-0.25-0.368-0.497-0.736-0.725-1.113c-0.285-0.471-0.561-0.947-0.811-1.432c-0.687-1.333-1.248-2.714-1.666-4.136l-0.465-1.584
				l0.853,1.413c0.651,1.079,1.408,2.106,2.244,3.071c0.265,0.307,0.539,0.606,0.821,0.898c0.649,0.674,1.336,1.311,2.062,1.899
				c0.563-0.254,1.12-0.521,1.676-0.795c-1.006-0.431-1.977-1.079-2.883-1.939C378.867,243.059,378.788,242.966,378.703,242.881z"/>
			
				<linearGradient id="SVGID_00000162354757508489123850000017590569140407096740_" gradientUnits="userSpaceOnUse" x1="332.686" y1="-43.5046" x2="409.9911" y2="349.8435">
				<stop  offset="0" style="stop-color:#5F00A4"/>
				<stop  offset="1" style="stop-color:#024594"/>
			</linearGradient>
			<path style="fill:url(#SVGID_00000162354757508489123850000017590569140407096740_);" d="M389.229,239.981
				c0.079-0.154,0.16-0.306,0.232-0.47c0.924-2.097,1.142-4.705,0.612-7.346c-0.53-2.64-1.737-4.963-3.399-6.541
				c-1.273-1.209-2.672-1.848-4.046-1.848c-0.159,0-0.315,0.025-0.471,0.047c-0.046,0.006-0.093,0.007-0.139,0.014
				c0.08,0.023,0.16,0.033,0.24,0.059c0.026,0.009,0.051,0.022,0.077,0.032c1.117,0.391,2.186,1.069,3.096,1.974
				c1.65,1.617,2.826,3.868,3.401,6.515c0.5,2.561,0.294,5.059-0.589,7.234c-0.012,0.028-0.02,0.058-0.032,0.087
				c-0.493,1.193-1.223,2.237-2.109,3.03c-0.017,0.015-0.031,0.033-0.048,0.048c-0.066,0.057-0.139,0.098-0.207,0.152
				c0.047-0.012,0.091-0.031,0.138-0.045C387.309,242.533,388.439,241.514,389.229,239.981z"/>
			
				<linearGradient id="SVGID_00000072266105451759910810000001624833757711550372_" gradientUnits="userSpaceOnUse" x1="327.6009" y1="-42.5055" x2="404.9059" y2="350.8422">
				<stop  offset="0" style="stop-color:#5F00A4"/>
				<stop  offset="1" style="stop-color:#024594"/>
			</linearGradient>
			<path style="fill:url(#SVGID_00000072266105451759910810000001624833757711550372_);" d="M386.364,239.01L386.364,239.01
				c0.487-1.831,0.525-3.89,0.107-6.122c-0.432-2.147-1.297-4.108-2.5-5.669c-0.54-0.684-1.28-1.427-2.212-1.989
				c-0.217-0.131-0.446-0.25-0.684-0.358c-0.283-0.128-0.576-0.244-0.889-0.33c-0.911,0.613-1.68,1.575-2.235,2.834
				c-0.924,2.097-1.141,4.706-0.612,7.346c0.084,0.419,0.191,0.826,0.309,1.227c0.45,1.537,1.133,2.932,2.007,4.089
				c0.118,0.157,0.242,0.307,0.367,0.455c0.229,0.271,0.466,0.531,0.717,0.77c0.998,0.948,2.075,1.54,3.157,1.753
				c0.251-0.197,0.473-0.413,0.682-0.638c0.181-0.195,0.349-0.396,0.501-0.605c0.64-0.878,1.036-1.849,1.271-2.689
				C386.355,239.06,386.357,239.034,386.364,239.01z"/>
			
				<linearGradient id="SVGID_00000035508099555763190810000013661846403255004296_" gradientUnits="userSpaceOnUse" x1="331.104" y1="-43.1961" x2="408.4095" y2="350.1541">
				<stop  offset="0" style="stop-color:#5F00A4"/>
				<stop  offset="1" style="stop-color:#024594"/>
			</linearGradient>
			<path style="fill:url(#SVGID_00000035508099555763190810000013661846403255004296_);" d="M391.709,240.804
				c-0.129,0.275-0.271,0.534-0.417,0.789c-0.001,0.003-0.003,0.005-0.004,0.008c-0.117,0.209-0.248,0.4-0.376,0.594
				c-0.072,0.109-0.141,0.222-0.216,0.326c-0.071,0.098-0.148,0.185-0.222,0.279c-0.136,0.173-0.271,0.346-0.417,0.504
				c-0.039,0.043-0.082,0.08-0.122,0.122c-0.179,0.188-0.362,0.369-0.554,0.535c-0.058,0.05-0.12,0.091-0.179,0.139
				c-0.173,0.14-0.347,0.279-0.529,0.4c-0.2,0.133-0.407,0.253-0.618,0.364c-0.039,0.021-0.076,0.047-0.116,0.067
				c-0.535,0.269-1.102,0.466-1.696,0.585c-0.038,0.008-0.077,0.01-0.115,0.017c-0.597,0.34-1.203,0.66-1.809,0.978
				c-0.176,0.092-0.348,0.192-0.524,0.282c-0.064,0.033-0.126,0.07-0.19,0.102l-0.999,1.81c1.442,0.064,2.844,0.124,4.226,0.182
				l6.024-7.708C392.476,241.055,392.093,240.93,391.709,240.804z"/>
			
				<linearGradient id="SVGID_00000003067376698934761830000007950611713225584824_" gradientUnits="userSpaceOnUse" x1="342.9112" y1="-45.5122" x2="420.2157" y2="347.8328">
				<stop  offset="0" style="stop-color:#5F00A4"/>
				<stop  offset="1" style="stop-color:#024594"/>
			</linearGradient>
			<path style="fill:url(#SVGID_00000003067376698934761830000007950611713225584824_);" d="M402.011,244
				c-0.727-0.21-1.467-0.427-2.216-0.651l-3.264,5.916l4,0.13l3.717-4.756C403.547,244.44,402.806,244.229,402.011,244z"/>
			
				<linearGradient id="SVGID_00000028305424721678230760000001758272652842698893_" gradientUnits="userSpaceOnUse" x1="348.8822" y1="-46.685" x2="426.1866" y2="346.659">
				<stop  offset="0" style="stop-color:#5F00A4"/>
				<stop  offset="1" style="stop-color:#024594"/>
			</linearGradient>
			<path style="fill:url(#SVGID_00000028305424721678230760000001758272652842698893_);" d="M403.529,249.48
				c1.429,0.036,2.733,0.062,3.922,0.079l2.566-3.284c-1.101-0.32-2.434-0.694-4.081-1.158L403.529,249.48z"/>
			
				<linearGradient id="SVGID_00000015323601072428725010000010905023173708744621_" gradientUnits="userSpaceOnUse" x1="354.3423" y1="-47.7596" x2="431.647" y2="345.586">
				<stop  offset="0" style="stop-color:#5F00A4"/>
				<stop  offset="1" style="stop-color:#024594"/>
			</linearGradient>
			<path style="fill:url(#SVGID_00000015323601072428725010000010905023173708744621_);" d="M412.067,246.904l-1.476,2.675
				c2.194-0.008,3.605-0.078,4.064-0.22l0.189-0.242C414.807,248.127,414.33,247.655,412.067,246.904z"/>
			
				<linearGradient id="SVGID_00000015326082851822716330000010559849673727593139_" gradientUnits="userSpaceOnUse" x1="158.3278" y1="-9.2367" x2="235.6326" y2="384.1096">
				<stop  offset="0" style="stop-color:#5F00A4"/>
				<stop  offset="1" style="stop-color:#024594"/>
			</linearGradient>
			<path style="fill:url(#SVGID_00000015326082851822716330000010559849673727593139_);" d="M244.087,258.947
				c-8.291,0.695-16.576,1.454-24.847,2.342c-13.308,1.385-26.584,3.056-39.821,4.969c13.343-0.923,26.683-1.74,40.02-2.495
				c7.415-0.395,14.83-0.76,22.245-1.096C242.466,261.416,243.27,260.177,244.087,258.947z"/>
			
				<linearGradient id="SVGID_00000159461905229349130820000013040152223686938559_" gradientUnits="userSpaceOnUse" x1="147.5961" y1="-7.129" x2="224.9013" y2="386.2194">
				<stop  offset="0" style="stop-color:#5F00A4"/>
				<stop  offset="1" style="stop-color:#024594"/>
			</linearGradient>
			<path style="fill:url(#SVGID_00000159461905229349130820000013040152223686938559_);" d="M192.266,284.718
				c-1.27,0.225-2.238,1.329-2.249,2.665c-0.011,1.506,1.201,2.737,2.707,2.748c6.794,0.051,13.587,0.033,20.38-0.016
				c2.209-3.364,4.292-6.817,6.412-10.246l-27.188,4.838L192.266,284.718z"/>
			
				<linearGradient id="SVGID_00000021828255252864672170000017996171396257660825_" gradientUnits="userSpaceOnUse" x1="242.3549" y1="-25.7554" x2="319.6607" y2="367.5961">
				<stop  offset="0" style="stop-color:#5F00A4"/>
				<stop  offset="1" style="stop-color:#024594"/>
			</linearGradient>
			<path style="fill:url(#SVGID_00000021828255252864672170000017996171396257660825_);" d="M292.02,285.164
				c0.35,0.486,0.701,0.975,1.054,1.464c2.173-0.173,4.347-0.341,6.519-0.527c5.071-0.459,10.137-0.968,15.2-1.486l-15.262,0.395
				C297.027,285.073,294.523,285.116,292.02,285.164z"/>
			
				<linearGradient id="SVGID_00000133510441013974517480000009031688664907861665_" gradientUnits="userSpaceOnUse" x1="245.9892" y1="-26.466" x2="323.2939" y2="366.8799">
				<stop  offset="0" style="stop-color:#5F00A4"/>
				<stop  offset="1" style="stop-color:#024594"/>
			</linearGradient>
			<path style="fill:url(#SVGID_00000133510441013974517480000009031688664907861665_);" d="M340.675,260.414
				c1.122-0.459,1.907-1.568,1.893-2.854c-0.018-1.682-1.397-3.031-3.079-3.013c-13.392,0.145-26.78,0.431-40.16,0.954
				c-12.784,0.55-25.561,1.21-38.32,2.118c0.618,1.393,1.214,2.796,1.798,4.205c12.224-0.419,24.447-0.778,36.673-0.935
				c7.053-0.118,14.107-0.202,21.16-0.244c-5.848,1.662-11.775,3.103-17.75,4.374c-6.055,1.296-12.157,2.439-18.286,3.515
				l-6.156,1.073c1.831,1.842,3.612,3.732,5.36,5.653c0.646-0.112,1.29-0.219,1.936-0.333c6.171-1.119,12.346-2.31,18.501-3.664
				c12.298-2.722,24.577-6.039,36.374-10.828L340.675,260.414z"/>
		</g>
		<g>
			<path id="SVGID_x5F_00000148649321279717243120000014858252475068250807_x5F_" style="fill:none;" d="M132.788,95.405
				c-67.768,64.734-70.228,172.149-5.493,239.917c64.734,67.768,172.149,70.227,239.917,5.493
				c67.768-64.734,70.227-172.149,5.493-239.917C307.971,33.13,200.556,30.67,132.788,95.405z"/>
			<text>			<textPath  xlink:href="#SVGID_x5F_00000148649321279717243120000014858252475068250807_x5F_" startOffset="-502.0387%">
<tspan  style="fill:#142893; font-family:'Montserrat-Black'; font-size:50.8864px; letter-spacing:240;">TRAVEL</tspan>			</textPath>
</text>
			<g>
				<path id="SVGID_x5F_00000064334882443107774270000007044167774004461968_x5F_" style="fill:none;" d="M68.078,150.082
					c-37.571,100.473,13.421,212.379,113.894,249.95s212.379-13.421,249.95-113.894S418.501,73.759,318.028,36.188
					S105.649,49.609,68.078,150.082z"/>
				<text>				<textPath  xlink:href="#SVGID_x5F_00000064334882443107774270000007044167774004461968_x5F_" startOffset="-502.0387%">
<tspan  style="fill:#FAA21B; font-family:'Montserrat-Regular'; font-size:10.8269px; letter-spacing:240;">EXPLORING THE WORLD</tspan>				</textPath>
</text>
			</g>
			<g>
				<path style="fill:#FAA21B;" d="M341.058,381.089c13.327-5.951,25.637-14.334,36.134-24.664
					c-9.968,10.84-21.936,19.926-35.184,26.655L341.058,381.089z"/>
				<path style="fill:#FAA21B;" d="M342.163,384.38c13.327-5.951,25.637-14.334,36.134-24.663
					c-9.968,10.84-21.936,19.926-35.184,26.655L342.163,384.38z"/>
			</g>
			<g>
				<path style="fill:#FAA21B;" d="M161.092,384.205c-13.345-5.91-25.68-14.256-36.209-24.553
					c10.001,10.81,21.996,19.859,35.265,26.547L161.092,384.205z"/>
				<path style="fill:#FAA21B;" d="M159.997,387.5c-13.345-5.91-25.68-14.256-36.209-24.553
					c10.001,10.81,21.996,19.859,35.265,26.548L159.997,387.5z"/>
			</g>
		</g>
	</g>
</g>
</svg>
